<svg width="32" height="32" viewBox="0 0 32 32" fill="none" xmlns="http://www.w3.org/2000/svg">
<g clip-path="url(#clip0_2_16680)">
<path d="M21.1302 18.7182C18.0397 15.9442 13.1489 16.4156 10.6759 19.7717C9.95662 17.6461 8.18124 15.8649 5.76712 15.1566C3.76899 14.5699 1.72449 14.8327 0.0624294 15.7277V31.6253C0.0624294 31.6253 5.0568 32.8662 9.03124 30.0747C16.4306 32.4189 24.5186 30.8812 30.6715 25.2992C31.7688 24.3031 32.1983 22.7859 31.7797 21.3796L26.9174 4.68155C26.8378 4.41452 26.7014 4.16786 26.5175 3.95846C26.3337 3.74906 26.1068 3.58188 25.8523 3.46837L18.6601 0.262241C17.8513 -0.0983842 16.9009 0.137303 16.3542 0.834053L14.2491 3.51412C13.8421 4.03312 13.8924 4.77562 14.3663 5.23474L16.9736 7.76155C17.4444 8.21749 18.1829 8.24705 18.6891 7.83043L19.21 7.40093C19.4041 7.24114 19.6408 7.14162 19.8908 7.11461C20.1408 7.0876 20.3932 7.13429 20.617 7.24893L21.0794 7.48655C21.3032 7.60131 21.4885 7.77915 21.6123 7.99809C21.7362 8.21703 21.7931 8.46747 21.7761 8.71843L21.1302 18.7182Z" fill="#FFD033" style="fill:#FFD033;fill:color(display-p3 1.0000 0.8157 0.2000);fill-opacity:1;"/>
<path d="M10.1828 21.724C11.0904 19.1348 13.5814 17.3951 16.3813 17.3951C18.5917 17.3951 20.6385 18.4748 21.8563 20.2833C21.9279 20.3895 22.0387 20.463 22.1644 20.4875C22.2901 20.512 22.4204 20.4856 22.5267 20.4141C22.6329 20.3425 22.7064 20.2317 22.7309 20.106C22.7555 19.9803 22.729 19.8499 22.6575 19.7437C21.2599 17.6683 18.9137 16.4292 16.3814 16.4292C13.1718 16.4292 10.3145 18.4286 9.2713 21.4044C9.2311 21.5248 9.23986 21.6561 9.29568 21.77C9.3515 21.8839 9.4499 21.9713 9.56962 22.0133C9.68934 22.0553 9.82076 22.0485 9.9355 21.9943C10.0502 21.9402 10.1391 21.8431 10.1828 21.724Z" fill="#BF9C26" style="fill:#BF9C26;fill:color(display-p3 0.7490 0.6118 0.1490);fill-opacity:1;"/>
</g>
<defs>
<clipPath id="clip0_2_16680">
<rect width="32" height="32" fill="white" style="fill:white;fill-opacity:1;" transform="matrix(-1 0 0 1 32 0)"/>
</clipPath>
</defs>
</svg>
