<svg width="24" height="24" viewBox="0 0 24 24" fill="none" xmlns="http://www.w3.org/2000/svg">
<g clip-path="url(#clip0_133_268)">
<path fill-rule="evenodd" clip-rule="evenodd" d="M10.5322 1.1397C11.4862 0.829744 12.5138 0.829729 13.4678 1.1397C14.056 1.33085 14.5687 1.67165 15.1143 2.13481C15.6532 2.59234 16.2724 3.21193 17.0557 3.99517L23.5303 10.4698C23.8231 10.7626 23.8231 11.2374 23.5303 11.5303C23.2374 11.8232 22.7626 11.8232 22.4697 11.5303L21.96 11.0206L20.7646 17.002C20.5836 17.9075 20.4399 18.6273 20.2793 19.2041C20.1161 19.79 19.9217 20.2797 19.6152 20.7188C19.1142 21.4365 18.425 22.0021 17.623 22.3526C17.1323 22.5671 16.6134 22.661 16.0068 22.7061C15.4097 22.7505 14.6762 22.75 13.7529 22.75H10.2471C9.32383 22.75 8.59028 22.7505 7.99316 22.7061C7.38655 22.661 6.86773 22.5671 6.37695 22.3526C5.57494 22.0021 4.88577 21.4365 4.38476 20.7188C4.07824 20.2797 3.88386 19.79 3.7207 19.2041C3.56006 18.6273 3.41644 17.9075 3.23535 17.002L2.03906 11.0206L1.53027 11.5303C1.23738 11.8232 0.762616 11.8232 0.469723 11.5303C0.176831 11.2374 0.17683 10.7627 0.469723 10.4698L6.94433 3.99517C7.72754 3.21195 8.34681 2.59233 8.88574 2.13481C9.43132 1.67167 9.94398 1.33084 10.5322 1.1397ZM12 9.00005C10.3432 9.00005 9.00003 10.3432 9 12C9 13.6569 10.3431 15 12 15C13.6568 15 15 13.6569 15 12C15 10.3432 13.6568 9.00008 12 9.00005Z" fill="url(#paint0_linear_133_268)"/>
</g>
<defs>
<linearGradient id="paint0_linear_133_268" x1="12" y1="0.907227" x2="12" y2="22.7501" gradientUnits="userSpaceOnUse">
<stop stop-color="#FF7800" style="stop-color:#FF7800;stop-color:color(display-p3 1.0000 0.4706 0.0000);stop-opacity:1;"/>
<stop offset="1" stop-color="#FF5000" style="stop-color:#FF5000;stop-color:color(display-p3 1.0000 0.3137 0.0000);stop-opacity:1;"/>
</linearGradient>
<clipPath id="clip0_133_268">
<rect width="24" height="24" fill="white" style="fill:white;fill-opacity:1;"/>
</clipPath>
</defs>
</svg>
